<svg width="489" height="85" viewBox="0 0 489 85" fill="none" xmlns="http://www.w3.org/2000/svg">
<path d="M487.154 25.0879L480.694 28.916C479.487 26.8197 478.336 25.4525 477.242 24.8145C476.103 24.0853 474.633 23.7207 472.833 23.7207C470.623 23.7207 468.788 24.3473 467.33 25.6006C465.872 26.8311 465.143 28.3805 465.143 30.249C465.143 32.8239 467.057 34.8975 470.885 36.4697L476.148 38.623C480.432 40.3548 483.565 42.474 485.548 44.9805C487.53 47.4642 488.521 50.5176 488.521 54.1406C488.521 58.9941 486.904 63.0046 483.668 66.1719C480.41 69.362 476.365 70.957 471.534 70.957C466.954 70.957 463.172 69.6012 460.187 66.8896C457.247 64.1781 455.413 60.3613 454.684 55.4395L462.75 53.6621C463.115 56.7611 463.753 58.903 464.664 60.0879C466.305 62.3665 468.697 63.5059 471.842 63.5059C474.326 63.5059 476.388 62.6742 478.028 61.0107C479.669 59.3473 480.489 57.2396 480.489 54.6875C480.489 53.6621 480.341 52.7279 480.045 51.8848C479.771 51.0189 479.327 50.2327 478.712 49.5264C478.119 48.7972 477.345 48.125 476.388 47.5098C475.431 46.8717 474.291 46.2679 472.97 45.6982L467.877 43.5791C460.654 40.5257 457.042 36.0596 457.042 30.1807C457.042 26.2158 458.557 22.9004 461.588 20.2344C464.618 17.5456 468.39 16.2012 472.901 16.2012C478.985 16.2012 483.736 19.1634 487.154 25.0879Z" fill="white"/>
<path d="M429.46 42.5195H451.267V44.2627C451.267 48.2275 450.799 51.7367 449.865 54.79C448.954 57.6156 447.416 60.2588 445.251 62.7197C440.352 68.234 434.12 70.9912 426.555 70.9912C419.172 70.9912 412.849 68.3252 407.585 62.9932C402.321 57.6383 399.689 51.2126 399.689 43.7158C399.689 36.0596 402.367 29.5654 407.722 24.2334C413.076 18.8786 419.593 16.2012 427.272 16.2012C431.397 16.2012 435.248 17.0443 438.825 18.7305C442.243 20.4167 445.604 23.151 448.908 26.9336L443.234 32.3682C438.905 26.6032 433.63 23.7207 427.409 23.7207C421.826 23.7207 417.144 25.6462 413.361 29.4971C409.579 33.2796 407.688 38.0192 407.688 43.7158C407.688 49.5947 409.795 54.4368 414.011 58.2422C417.953 61.7741 422.225 63.54 426.828 63.54C430.747 63.54 434.268 62.2184 437.39 59.5752C440.511 56.9092 442.255 53.7191 442.619 50.0049H429.46V42.5195Z" fill="white"/>
<path d="M387.83 57.1826H365.237L359.358 70H350.779L376.893 13.9111L402.083 70H393.367L387.83 57.1826ZM384.583 49.6973L376.756 31.7529L368.553 49.6973H384.583Z" fill="white"/>
<path d="M344.491 24.7119V70H336.527V24.7119H324.394V17.2266H356.591V24.7119H344.491Z" fill="white"/>
<path d="M251.148 43.374C251.148 35.9456 253.871 29.5654 259.317 24.2334C264.741 18.9014 271.257 16.2354 278.868 16.2354C286.388 16.2354 292.836 18.9242 298.214 24.3018C303.614 29.6794 306.314 36.1393 306.314 43.6816C306.314 51.2695 303.603 57.7067 298.18 62.9932C292.734 68.3024 286.16 70.957 278.458 70.957C271.645 70.957 265.527 68.5986 260.104 63.8818C254.133 58.6637 251.148 51.8278 251.148 43.374ZM259.181 43.4766C259.181 49.3099 261.14 54.1064 265.06 57.8662C268.956 61.626 273.456 63.5059 278.561 63.5059C284.098 63.5059 288.769 61.5918 292.574 57.7637C296.38 53.89 298.282 49.1732 298.282 43.6133C298.282 37.985 296.402 33.2682 292.643 29.4629C288.906 25.6348 284.28 23.7207 278.766 23.7207C273.274 23.7207 268.637 25.6348 264.854 29.4629C261.072 33.2454 259.181 37.9167 259.181 43.4766Z" fill="white"/>
<path d="M247.321 24.7119H226.164V37.3926H246.706V44.8779H226.164V62.5146H247.321V70H218.2V17.2266H247.321V24.7119Z" fill="white"/>
<path d="M171.341 70V17.2266H182.415C187.724 17.2266 191.917 17.7507 194.993 18.7988C198.297 19.8242 201.294 21.5674 203.982 24.0283C209.428 28.9958 212.151 35.5241 212.151 43.6133C212.151 51.7253 209.314 58.2878 203.641 63.3008C200.792 65.8073 197.807 67.5505 194.686 68.5303C191.769 69.5101 187.633 70 182.278 70H171.341ZM179.305 62.5146H182.894C186.471 62.5146 189.445 62.1387 191.814 61.3867C194.184 60.5892 196.326 59.3245 198.24 57.5928C202.16 54.0153 204.119 49.3555 204.119 43.6133C204.119 37.8255 202.182 33.1315 198.309 29.5312C194.822 26.3184 189.684 24.7119 182.894 24.7119H179.305V62.5146Z" fill="white"/>
<path d="M162.66 17.2266V70H154.696V17.2266H162.66Z" fill="white"/>
<path d="M113.989 17.2266L128.584 53.7988L143.384 17.2266H152.1L128.413 73.9648L105.273 17.2266H113.989Z" fill="white"/>
<rect width="85" height="85" rx="10" fill="white"/>
<path d="M12.9893 17.2266L27.584 53.7988L42.3838 17.2266H51.0996L27.4131 73.9648L4.27344 17.2266H12.9893Z" fill="#1D252B"/>
<path d="M66.8838 24.7119V70H58.9199V24.7119H46.7861V17.2266H78.9834V24.7119H66.8838Z" fill="#1D252B"/>
</svg>
